<?xml version="1.0" encoding="UTF-8" standalone="no"?>
<!-- Created with Inkscape (http://www.inkscape.org/) -->

<svg
   xmlns:dc="http://purl.org/dc/elements/1.1/"
   xmlns:cc="http://creativecommons.org/ns#"
   xmlns:rdf="http://www.w3.org/1999/02/22-rdf-syntax-ns#"
   xmlns:svg="http://www.w3.org/2000/svg"
   xmlns="http://www.w3.org/2000/svg"
   xmlns:sodipodi="http://sodipodi.sourceforge.net/DTD/sodipodi-0.dtd"
   xmlns:inkscape="http://www.inkscape.org/namespaces/inkscape"
   width="210mm"
   height="297mm"
   viewBox="0 0 744.09448819 1052.3622047"
   id="svg2"
   version="1.1"
   inkscape:version="0.91 r13725"
   sodipodi:docname="blocks.svg">
  <defs
     id="defs4" />
  <sodipodi:namedview
     id="base"
     pagecolor="#ffffff"
     bordercolor="#666666"
     borderopacity="1.0"
     inkscape:pageopacity="0.0"
     inkscape:pageshadow="2"
     inkscape:zoom="0.98994949"
     inkscape:cx="416.96474"
     inkscape:cy="736.80736"
     inkscape:document-units="px"
     inkscape:current-layer="layer2"
     showgrid="false"
     inkscape:snap-intersection-paths="false"
     inkscape:object-nodes="false"
     inkscape:snap-smooth-nodes="false"
     inkscape:snap-midpoints="false"
     inkscape:object-paths="false"
     inkscape:window-width="1215"
     inkscape:window-height="1000"
     inkscape:window-x="65"
     inkscape:window-y="24"
     inkscape:window-maximized="1"
     inkscape:snap-object-midpoints="true"
     inkscape:snap-page="true"
     inkscape:snap-grids="true"
     inkscape:snap-global="true"
     showguides="true"
     inkscape:snap-others="true"
     inkscape:snap-nodes="false" />
  <metadata
     id="metadata7">
    <rdf:RDF>
      <cc:Work
         rdf:about="">
        <dc:format>image/svg+xml</dc:format>
        <dc:type
           rdf:resource="http://purl.org/dc/dcmitype/StillImage" />
        <dc:title />
      </cc:Work>
    </rdf:RDF>
  </metadata>
  <g
     inkscape:label="Layer 1"
     inkscape:groupmode="layer"
     id="layer1" />
  <g
     inkscape:groupmode="layer"
     id="layer2"
     inkscape:label="Layer 2">
    <rect
       style="fill:#cccccc;fill-opacity:1"
       id="rect4151-5-9"
       width="140"
       height="44.999977"
       x="399.01025"
       y="45.240082"
       ry="2.2107222e-05" />
    <circle
       style="fill:#cccccc;fill-opacity:1"
       id="path4153-3-1"
       cx="421.51025"
       cy="87.740082"
       r="7.5" />
    <path
       style="fill:#d7795d;fill-opacity:1"
       d="m 159.70397,129.49307 c -24.4214,0.01 -45.2006,5.0683 -49.0176,11.9355 l -4.6152,0 c -2.5722,0 -4.6426,2.0704 -4.6426,4.6426 l 0,2.6816 0,2.877 0,24.7988 15.4375,0 c 1.0584,2.9936 3.8873,4.9964 7.0625,5 3.1745,0 6.0024,-2.0071 7.0605,-5 l 110.4395,0 0,-24.7988 0,-4.1406 0,-1.418 c 0,-2.5722 -2.0704,-4.6426 -4.6426,-4.6426 l -28.0332,0 c -3.8189,-6.8706 -24.6156,-11.9313 -49.0488,-11.9355 z"
       id="event"
       inkscape:connector-curvature="0"
       inkscape:label="event"
       sodipodi:nodetypes="ccsscccccccccsscc" />
    <path
       style="fill:#628fe2;fill-opacity:1"
       d="m 467.12362,205.20736 0,34.99999 15.4375,0 c 1.05841,2.99364 3.88727,4.99637 7.0625,5 3.17451,-0.004 6.00238,-2.00703 7.06055,-5 l 110.43945,0 0,-34.99999 -110.43945,0 c -1.05817,2.99296 -3.88604,4.99555 -7.06055,5 -3.17523,-0.004 -6.00409,-2.00636 -7.0625,-5 z"
       id="instruction"
       inkscape:label="instruction"
       inkscape:connector-curvature="0"
       sodipodi:nodetypes="ccccccccccc" />
    <path
       style="fill:#d5a404;fill-opacity:1"
       d="m 324.28571,129.28571 0,95 15.4375,0 c 1.05841,2.99363 3.88727,4.99637 7.0625,5 3.17451,-0.004 6.00238,-2.00704 7.06055,-5 l 45.43945,0 0,-15 -30.43945,0 c -1.05817,2.99297 -3.88604,4.99555 -7.06055,5 -3.17522,-0.004 -6.00409,-2.00636 -7.0625,-5 l -15.4375,0 0,-45 15.4375,0 c 1.05841,2.99364 3.88728,4.99638 7.0625,5 3.17451,-0.005 6.00238,-2.00703 7.06055,-5 l 95.43945,0 0,-35 -110.43945,0 c -1.05817,2.99297 -3.88604,4.99555 -7.06055,5 -3.17523,-0.004 -6.00409,-2.00636 -7.0625,-5 z"
       id="instruction-22"
       inkscape:connector-curvature="0"
       sodipodi:nodetypes="ccccccccccccccccccccc"
       inkscape:label="control" />
    <g
       id="control"
       inkscape:label="control"
       transform="translate(-32.295485,-56.786035)">
      <path
         inkscape:label="#instruction"
         inkscape:connector-curvature="0"
         id="instruction-22-3"
         d="m 32.295485,56.607144 0,95.000006 15.4375,0 c 1.05841,2.99363 3.88727,4.99637 7.0625,5 3.17451,-0.004 6.00237,-2.00704 7.06054,-5 l 45.439445,0 0,-15 -30.439445,0 c -1.05817,2.99296 -3.88603,4.99555 -7.06054,5 -3.17523,-0.004 -6.0041,-2.00636 -7.0625,-5 l -15.4375,0 0,-45.000006 15.4375,0 c 1.0584,2.99364 3.88727,4.99637 7.0625,5 3.17451,-0.004 6.00237,-2.00704 7.06054,-5 l 45.234385,0 c -9.69501,0 -17.50001,-7.805 -17.50001,-17.5 0,-9.695 7.805,-17.5 17.50001,-17.5 l -60.234385,0 c -1.05817,2.99296 -3.88603,4.99555 -7.06054,5 -3.17523,-0.004 -6.00409,-2.00636 -7.0625,-5 l -15.4375,0 z m 167.601575,0 c 9.695,0 17.5,7.805 17.5,17.5 0,9.695 -7.805,17.5 -17.5,17.5 l 25.5,0 0,-35 -25.5,0 z"
         style="fill:#d5a404;fill-opacity:1" />
      <path
         sodipodi:nodetypes="sssssss"
         inkscape:connector-curvature="0"
         id="rect4157"
         d="m 122.09114,56.607464 77.80545,0 c 9.695,0 17.5,7.805 17.5,17.5 0,9.695 -7.805,17.5 -17.5,17.5 l -77.80545,0 c -9.69501,0 -17.50001,-7.805 -17.50001,-17.5 0,-9.695 7.805,-17.5 17.50001,-17.5 z"
         style="fill:#feecb1;fill-opacity:1" />
    </g>
    <path
       style="fill:#d5a404;fill-opacity:1"
       d="m 17.5,-0.17857143 c -9.6950004,0 -17.5,7.80500003 -17.5,17.50000043 0,9.695 7.8049996,17.5 17.5,17.5 l 7.5,0 c -9.695,0 -17.5000004,-7.805 -17.5000004,-17.5 C 7.4999996,7.6264286 15.305,-0.17857143 25,-0.17857143 l -7.5,0 z m 85.30469,0 c 9.695,0 17.5,7.80500003 17.5,17.50000043 0,9.695 -7.805,17.5 -17.5,17.5 l 50,0 c -9.695,0 -17.5,-7.805 -17.5,-17.5 0,-9.6950004 7.805,-17.50000043 17.5,-17.50000043 l -50,0 z m 127.80664,0 c 9.695,0 17.5,7.80500003 17.5,17.50000043 0,9.695 -7.805,17.5 -17.5,17.5 l 7.5,0 c 9.695,0 17.5,-7.805 17.5,-17.5 0,-9.6950004 -7.805,-17.50000043 -17.5,-17.50000043 l -7.5,0 z"
       id="path4231"
       inkscape:connector-curvature="0" />
    <path
       style="fill:#feecb1;fill-opacity:1"
       d="m 24.99981,-0.17943143 77.80544,0 c 9.695,0 17.5,7.80500003 17.5,17.50000043 0,9.695 -7.805,17.5 -17.5,17.5 l -77.80544,0 c -9.695,0 -17.5000004,-7.805 -17.5000004,-17.5 0,-9.6950004 7.8050004,-17.50000043 17.5000004,-17.50000043 z"
       id="rect4157-3"
       inkscape:connector-curvature="0"
       sodipodi:nodetypes="sssssss" />
    <path
       sodipodi:nodetypes="sssssss"
       inkscape:connector-curvature="0"
       id="path4184"
       d="m 152.80525,-0.17943143 77.80544,0 c 9.695,0 17.5,7.80500003 17.5,17.50000043 0,9.695 -7.805,17.5 -17.5,17.5 l -77.80544,0 c -9.695,0 -17.5,-7.805 -17.5,-17.5 0,-9.6950004 7.805,-17.50000043 17.5,-17.50000043 z"
       style="fill:#feecb1;fill-opacity:1" />
  </g>
</svg>
